<?xml version="1.0" standalone="no"?>
<!DOCTYPE svg PUBLIC "-//W3C//DTD SVG 20010904//EN"
 "http://www.w3.org/TR/2001/REC-SVG-20010904/DTD/svg10.dtd">
<svg version="1.0" xmlns="http://www.w3.org/2000/svg"
 width="512.000000pt" height="512.000000pt" viewBox="0 0 512.000000 512.000000"
 preserveAspectRatio="xMidYMid meet">
<g transform="translate(0.000000,512.000000) scale(0.100000,-0.100000)"
fill="#000000" stroke="none">
<path d="M393 5106 c-183 -45 -344 -210 -382 -394 -16 -75 -16 -4229 0 -4304
39 -189 208 -358 397 -397 75 -16 4229 -16 4304 0 189 39 358 208 397 397 16
75 16 4229 0 4304 -39 189 -208 358 -397 397 -81 17 -4248 14 -4319 -3z m1721
-2261 c242 -701 442 -1275 445 -1275 3 0 204 572 446 1271 242 699 444 1273
450 1275 6 3 110 3 231 2 l221 -3 -479 -1290 c-263 -709 -523 -1413 -579
-1562 l-101 -273 -187 0 -187 0 -574 1551 c-316 854 -576 1558 -578 1565 -3
12 38 14 225 14 l228 0 439 -1275z"/>
</g>
</svg>
